<svg width="30" height="30" viewBox="0 0 30 30" fill="none" xmlns="http://www.w3.org/2000/svg">
<circle cx="15" cy="15" r="15" fill="#68CD8B"/>
<g clip-path="url(#clip0_0_1)">
<path d="M22.5 25.0001H20.8333V20.7976C20.8327 20.1442 20.5728 19.5179 20.1109 19.0559C19.6489 18.5939 19.0225 18.3341 18.3692 18.3334H11.6308C10.9775 18.3341 10.3511 18.5939 9.88914 19.0559C9.42716 19.5179 9.16733 20.1442 9.16667 20.7976V25.0001H7.5V20.7976C7.50132 19.7024 7.93696 18.6525 8.71135 17.8781C9.48575 17.1037 10.5357 16.6681 11.6308 16.6667H18.3692C19.4643 16.6681 20.5143 17.1037 21.2886 17.8781C22.063 18.6525 22.4987 19.7024 22.5 20.7976V25.0001Z" fill="white"/>
<path d="M15 15C14.0111 15 13.0444 14.7068 12.2222 14.1574C11.3999 13.6079 10.759 12.8271 10.3806 11.9134C10.0022 10.9998 9.90315 9.99446 10.0961 9.02455C10.289 8.05465 10.7652 7.16373 11.4645 6.46447C12.1637 5.76521 13.0546 5.289 14.0246 5.09608C14.9945 4.90315 15.9998 5.00217 16.9134 5.3806C17.827 5.75904 18.6079 6.39991 19.1573 7.22215C19.7068 8.0444 20 9.0111 20 10C19.9987 11.3257 19.4715 12.5967 18.5341 13.5341C17.5967 14.4715 16.3257 14.9987 15 15ZM15 6.66667C14.3407 6.66667 13.6963 6.86217 13.1481 7.22844C12.5999 7.59471 12.1727 8.1153 11.9204 8.72439C11.6681 9.33348 11.6021 10.0037 11.7307 10.6503C11.8593 11.2969 12.1768 11.8909 12.643 12.357C13.1092 12.8232 13.7031 13.1407 14.3497 13.2693C14.9963 13.3979 15.6665 13.3319 16.2756 13.0796C16.8847 12.8273 17.4053 12.4001 17.7716 11.8519C18.1378 11.3037 18.3333 10.6593 18.3333 10C18.3333 9.11595 17.9821 8.2681 17.357 7.64298C16.7319 7.01786 15.8841 6.66667 15 6.66667Z" fill="white"/>
</g>
<defs>
<clipPath id="clip0_0_1">
<rect width="20" height="20" fill="white" transform="translate(5 5)"/>
</clipPath>
</defs>
</svg>
